<svg version="1.1" id="Layer_1" xmlns="http://www.w3.org/2000/svg" xmlns:xlink="http://www.w3.org/1999/xlink" x="0px" y="0px"
	 width="100%" viewBox="0 0 1827 1827" enable-background="new 0 0 1827 1827" xml:space="preserve">
<path fill="#000000" opacity="1.000000" stroke="none" 
	d="
M1012.000000,1828.000000 
	C674.666687,1828.000000 337.833344,1828.000000 1.000000,1828.000000 
	C1.000000,1219.000000 1.000000,610.000000 1.000000,1.000000 
	C610.000000,1.000000 1219.000000,1.000000 1828.000000,1.000000 
	C1828.000000,610.000000 1828.000000,1219.000000 1828.000000,1828.000000 
	C1556.166626,1828.000000 1284.333374,1828.000000 1012.000000,1828.000000 
M1054.020142,918.245544 
	C1053.919434,917.854614 1053.818848,917.463684 1054.464966,917.064514 
	C1055.547119,915.892944 1056.865723,914.864624 1057.676025,913.528198 
	C1069.445068,894.116882 1081.131958,874.655884 1092.867920,855.224426 
	C1101.362549,841.159973 1109.949951,827.151428 1118.408325,813.065308 
	C1132.762695,789.160339 1147.048462,765.214172 1161.362183,741.284668 
	C1168.348511,729.604919 1175.286621,717.895813 1182.335571,706.253784 
	C1186.796143,698.886475 1182.573120,688.574158 1172.120483,688.739624 
	C1131.643066,689.380188 1091.148682,689.129272 1050.662842,688.861755 
	C1044.533569,688.821289 1041.141724,691.405884 1038.381470,696.230042 
	C1030.225708,710.483704 1022.037781,724.720215 1013.719604,738.879456 
	C1004.059082,755.323547 994.236572,771.672424 984.503418,788.073975 
	C972.404541,808.461914 960.265442,828.826477 948.260376,849.269653 
	C941.629028,860.561951 935.373657,872.075989 928.689758,883.336243 
	C923.977112,891.275452 918.828796,898.956055 913.674561,907.067505 
	C910.077820,901.058105 906.730469,895.590515 903.504272,890.052368 
	C891.895325,870.124268 880.419556,850.118103 868.716003,830.245911 
	C858.538269,812.964722 847.974304,795.910461 837.842468,778.602844 
	C821.750061,751.113220 805.958130,723.447449 789.807495,695.992371 
	C787.718506,692.441223 785.085144,688.916138 779.770813,688.931824 
	C737.950745,689.055359 696.130127,688.993408 654.309692,689.010498 
	C649.700012,689.012390 645.311157,692.545105 645.164551,696.977966 
	C645.064270,700.011780 645.316895,703.520752 646.749756,706.063293 
	C653.754883,718.493469 661.192444,730.680542 668.508789,742.934692 
	C683.385193,767.850891 698.177856,792.817871 713.203064,817.644165 
	C725.387512,837.776611 737.993652,857.653992 750.160339,877.796997 
	C758.297485,891.268677 765.968872,905.021179 773.932556,918.598938 
	C774.530579,919.618591 775.801575,920.243530 776.901428,921.667908 
	C776.928833,922.087708 776.956177,922.507507 776.311462,923.160828 
	C770.865112,931.728821 768.890381,942.195557 762.448303,950.639343 
	C755.994507,936.838074 750.081787,923.933960 743.937256,911.141235 
	C739.516357,901.936768 734.901672,892.819153 730.091431,883.813293 
	C729.186951,882.119812 727.011475,880.101379 725.321289,880.004883 
	C717.995972,879.586853 710.633118,879.825745 704.013489,879.825745 
	C723.714966,918.553589 743.320740,957.093140 763.244812,996.258423 
	C771.873169,978.873962 780.518921,961.454407 789.760071,944.365295 
	C790.740540,946.066711 791.686890,947.788940 792.706970,949.466248 
	C800.199036,961.785278 807.814392,974.030945 815.184326,986.422546 
	C828.764709,1009.256042 842.136169,1032.213989 855.721619,1055.044434 
	C868.269348,1076.131348 880.966431,1097.129517 893.635010,1118.144287 
	C897.316345,1124.250977 900.606140,1130.693359 905.011108,1136.238647 
	C910.288452,1142.882324 920.612244,1141.557373 924.797546,1134.457764 
	C929.175049,1127.031982 933.654663,1119.666016 938.123657,1112.294678 
	C953.699097,1086.603882 969.341675,1060.953369 984.858643,1035.227295 
	C999.843933,1010.382690 1014.752441,985.491394 1029.593384,960.560303 
	C1034.249146,952.739197 1038.576782,944.722839 1043.692139,937.088684 
	C1045.751343,939.860901 1048.027344,942.502075 1049.806396,945.443726 
	C1051.445435,948.153870 1054.371582,951.894531 1053.571533,953.953491 
	C1050.342773,962.262512 1045.853027,970.077515 1041.908447,978.114014 
	C1039.870850,982.265503 1037.999878,986.498840 1035.975708,990.863159 
	C1043.814209,990.863159 1051.284180,990.863159 1058.056152,990.863159 
	C1076.869019,953.832336 1095.482666,917.193665 1114.525757,879.709839 
	C1106.314575,879.709839 1098.585083,879.658386 1090.859009,879.799500 
	C1090.180298,879.811890 1089.291138,880.972778 1088.896240,881.791504 
	C1086.337036,887.097839 1083.929321,892.476868 1081.394043,897.795044 
	C1075.954346,909.205627 1070.467163,920.593689 1064.735107,932.542053 
	C1060.843750,927.560791 1057.441895,923.206055 1054.020142,918.245544 
M424.234406,980.622192 
	C429.273499,977.372681 435.004120,974.834351 439.218262,970.736511 
	C450.564789,959.703186 457.800079,945.896545 460.403412,930.428467 
	C462.806458,916.150391 462.292816,901.876587 458.577332,887.352417 
	C451.955566,861.467224 435.919678,845.699829 411.289276,837.529907 
	C397.165405,832.844971 382.646179,832.139832 367.887512,832.901917 
	C358.301086,833.396973 348.668335,832.995117 338.657501,832.995117 
	C338.657501,885.847046 338.657501,938.267273 338.657501,990.694702 
	C339.389862,990.824829 339.876770,990.992981 340.360840,990.985352 
	C356.462006,990.729248 372.565094,990.545349 388.663208,990.157349 
	C401.002258,989.860046 412.879913,987.550903 424.234406,980.622192 
M1244.004761,924.621277 
	C1243.690674,918.589478 1243.823486,917.174927 1251.247681,917.659668 
	C1266.311157,918.643250 1281.484009,917.953552 1296.447510,917.953552 
	C1296.447510,910.380066 1296.447510,903.225281 1296.447510,895.687561 
	C1278.941772,895.687561 1261.576172,895.687561 1243.953491,895.687561 
	C1243.953491,882.172058 1243.953491,869.048645 1243.953491,855.207764 
	C1262.684692,855.207764 1280.553467,855.207764 1297.938232,855.207764 
	C1297.938232,847.063293 1297.938232,839.649841 1297.938232,832.850220 
	C1271.467407,832.850220 1245.574463,832.850220 1219.643555,832.850220 
	C1219.643555,885.998535 1219.643555,938.393738 1219.643555,990.599609 
	C1227.947998,990.599609 1235.690430,990.599609 1244.004761,990.599609 
	C1244.004761,968.663025 1244.004761,947.129517 1244.004761,924.621277 
M597.233887,960.501526 
	C597.233887,933.422119 597.233887,906.342712 597.233887,879.200745 
	C589.794495,879.200745 582.552734,879.200745 574.699341,879.200745 
	C574.699341,916.545166 574.699341,953.686707 574.699341,991.367798 
	C582.046631,991.367798 589.281128,991.367798 597.236145,991.367798 
	C597.236145,981.617615 597.236145,971.559692 597.233887,960.501526 
M1431.369995,921.499084 
	C1431.445557,908.356323 1431.467529,895.212830 1431.637207,882.071289 
	C1431.675903,879.073669 1431.023926,878.269836 1427.687988,878.570251 
	C1422.668213,879.022339 1417.547119,878.396667 1412.471924,878.166260 
	C1409.994873,878.053894 1408.209717,878.683716 1408.168457,881.567810 
	C1408.140747,883.512573 1408.124878,885.458130 1408.141357,887.403015 
	C1408.422485,920.483765 1408.707031,953.564453 1409.003784,986.645142 
	C1409.016479,988.067688 1409.152344,989.489258 1409.229004,990.878845 
	C1416.796753,990.878845 1423.924927,990.878845 1431.366577,990.878845 
	C1431.366577,968.003113 1431.366577,945.251221 1431.369995,921.499084 
M578.930908,852.843018 
	C586.430542,856.569763 592.550659,855.481323 597.184326,849.596741 
	C601.339355,844.319763 600.456665,836.270813 595.223572,831.716003 
	C590.839294,827.899963 582.241577,828.103760 578.170654,832.120239 
	C571.517029,838.684937 571.553345,844.847107 578.930908,852.843018 
M1408.458618,835.189636 
	C1408.100220,836.438354 1407.755127,837.690979 1407.381348,838.935059 
	C1405.168213,846.302551 1411.116089,854.660828 1418.821899,855.004822 
	C1424.595947,855.262634 1431.122803,850.864929 1432.492188,845.794067 
	C1433.973145,840.309814 1430.306763,832.165039 1425.461548,830.175903 
	C1418.379883,827.268555 1413.421753,828.714172 1408.458618,835.189636 
z"/>
<path fill="#322832" opacity="1.000000" stroke="none" 
	d="
M776.759766,921.051941 
	C775.801575,920.243530 774.530579,919.618591 773.932556,918.598938 
	C765.968872,905.021179 758.297485,891.268677 750.160339,877.796997 
	C737.993652,857.653992 725.387512,837.776611 713.203064,817.644165 
	C698.177856,792.817871 683.385193,767.850891 668.508789,742.934692 
	C661.192444,730.680542 653.754883,718.493469 646.749756,706.063293 
	C645.316895,703.520752 645.064270,700.011780 645.164551,696.977966 
	C645.311157,692.545105 649.700012,689.012390 654.309692,689.010498 
	C696.130127,688.993408 737.950745,689.055359 779.770813,688.931824 
	C785.085144,688.916138 787.718506,692.441223 789.807495,695.992371 
	C805.958130,723.447449 821.750061,751.113220 837.842468,778.602844 
	C847.974304,795.910461 858.538269,812.964722 868.716003,830.245911 
	C880.419556,850.118103 891.895325,870.124268 903.504272,890.052368 
	C906.730469,895.590515 910.077820,901.058105 913.674561,907.067505 
	C918.828796,898.956055 923.977112,891.275452 928.689758,883.336243 
	C935.373657,872.075989 941.629028,860.561951 948.260376,849.269653 
	C960.265442,828.826477 972.404541,808.461914 984.503418,788.073975 
	C994.236572,771.672424 1004.059082,755.323547 1013.719604,738.879456 
	C1022.037781,724.720215 1030.225708,710.483704 1038.381470,696.230042 
	C1041.141724,691.405884 1044.533569,688.821289 1050.662842,688.861755 
	C1091.148682,689.129272 1131.643066,689.380188 1172.120483,688.739624 
	C1182.573120,688.574158 1186.796143,698.886475 1182.335571,706.253784 
	C1175.286621,717.895813 1168.348511,729.604919 1161.362183,741.284668 
	C1147.048462,765.214172 1132.762695,789.160339 1118.408325,813.065308 
	C1109.949951,827.151428 1101.362549,841.159973 1092.867920,855.224426 
	C1081.131958,874.655884 1069.445068,894.116882 1057.676025,913.528198 
	C1056.865723,914.864624 1055.547119,915.892944 1053.804077,916.906738 
	C1051.122437,914.210693 1049.101807,911.672546 1046.997192,909.028931 
	C1051.685791,901.174072 1056.371216,893.260620 1061.119263,885.384949 
	C1068.013428,873.949646 1074.952637,862.541565 1082.077148,850.823486 
	C1084.676636,846.489929 1087.066895,842.451782 1089.467651,838.420044 
	C1097.681519,824.625793 1105.899170,810.833862 1114.429199,796.895325 
	C1120.643066,786.983948 1126.594238,777.248779 1132.411621,767.434265 
	C1134.170044,764.467529 1135.557007,761.280701 1137.418579,758.020996 
	C1149.546997,738.450317 1161.371094,719.053406 1173.595581,698.999878 
	C1170.650635,698.999878 1168.826904,698.999878 1167.003174,698.999878 
	C1134.369263,698.999878 1101.735474,699.026245 1069.101562,698.969971 
	C1064.495850,698.962036 1059.888550,698.356140 1055.286743,698.415039 
	C1053.217529,698.441589 1050.441040,698.782715 1049.256226,700.112976 
	C1047.141479,702.487366 1046.036621,705.746277 1044.428955,708.589844 
	C1040.273926,715.939270 1036.111572,723.284973 1031.882935,730.592224 
	C1028.149414,737.043823 1024.322876,743.441589 1020.307617,750.108887 
	C1018.157898,753.398865 1016.130859,756.381592 1014.339050,759.499512 
	C1009.845337,767.318909 1005.508240,775.228394 1001.011841,783.046143 
	C997.578552,789.015686 993.997375,794.900146 990.286316,801.101929 
	C982.717590,813.860474 975.307556,826.317871 967.991638,838.830383 
	C965.468262,843.146240 963.179626,847.599365 960.436584,852.067505 
	C944.815674,877.780518 929.541931,903.415771 913.906982,929.657288 
	C898.502625,903.773376 883.400696,878.397583 868.203979,852.648926 
	C860.380981,838.922913 852.719177,825.530701 844.883667,812.240967 
	C842.580811,808.334961 839.785400,804.719482 837.142761,800.610535 
	C835.200195,796.809082 833.390320,793.333801 831.449585,789.933228 
	C826.323181,780.950806 821.222412,771.951904 815.946106,763.057617 
	C813.135681,758.319946 809.982422,753.785706 806.936768,748.802002 
	C805.529541,745.828796 804.264587,743.158447 802.793396,740.606934 
	C795.372681,727.737854 788.016418,714.827759 780.298523,702.138306 
	C779.290955,700.481689 776.331543,699.136902 774.269104,699.127075 
	C736.952637,698.949341 699.635071,699.005676 662.317749,698.983093 
	C660.030151,698.981689 657.742676,698.739136 655.206238,698.594604 
	C663.330627,712.163025 671.052856,725.167664 678.897156,738.098206 
	C681.421387,742.259155 684.267700,746.224854 686.978516,750.625488 
	C689.328369,755.177246 691.542175,759.458374 694.029480,763.574280 
	C699.605408,772.800964 705.317200,781.945435 711.076294,791.451599 
	C715.789734,799.552307 720.332458,807.366272 725.027161,815.087708 
	C732.351990,827.135010 739.779968,839.119690 747.119812,851.483154 
	C759.555176,872.209412 772.034973,892.583496 784.514771,912.957520 
	C784.209351,913.198364 783.903992,913.439209 783.598572,913.680054 
	C782.681396,913.069031 781.764160,912.457947 780.992004,911.943481 
	C779.479065,915.199585 778.119446,918.125793 776.759766,921.051941 
z"/>
<path fill="#FCFCFC" opacity="1.000000" stroke="none" 
	d="
M423.943359,980.857910 
	C412.879913,987.550903 401.002258,989.860046 388.663208,990.157349 
	C372.565094,990.545349 356.462006,990.729248 340.360840,990.985352 
	C339.876770,990.992981 339.389862,990.824829 338.657501,990.694702 
	C338.657501,938.267273 338.657501,885.847046 338.657501,832.995117 
	C348.668335,832.995117 358.301086,833.396973 367.887512,832.901917 
	C382.646179,832.139832 397.165405,832.844971 411.289276,837.529907 
	C435.919678,845.699829 451.955566,861.467224 458.577332,887.352417 
	C462.292816,901.876587 462.806458,916.150391 460.403412,930.428467 
	C457.800079,945.896545 450.564789,959.703186 439.218262,970.736511 
	C435.004120,974.834351 429.273499,977.372681 423.943359,980.857910 
M436.575104,901.238464 
	C435.053253,896.323303 433.516815,891.412537 432.012604,886.492004 
	C428.951630,876.478943 422.192352,869.478760 413.580383,864.065979 
	C399.221771,855.041443 383.210327,854.237549 366.954712,855.138672 
	C365.585510,855.214539 363.353180,857.019897 363.176331,858.258118 
	C362.477234,863.152222 362.211548,868.140137 362.201538,873.094055 
	C362.182068,882.711853 362.577698,892.330566 362.560913,901.948425 
	C362.525299,922.362305 362.437408,942.777405 362.123077,963.188171 
	C362.060150,967.271667 363.799957,968.369019 367.340454,968.379578 
	C371.989166,968.393433 376.637146,968.619995 381.285980,968.641052 
	C393.200500,968.695007 404.568329,965.953064 414.527802,959.567383 
	C433.452362,947.433594 439.797943,922.125854 436.575104,901.238464 
z"/>
<path fill="#FCFCFC" opacity="1.000000" stroke="none" 
	d="
M1244.004761,925.108643 
	C1244.004761,947.129517 1244.004761,968.663025 1244.004761,990.599609 
	C1235.690430,990.599609 1227.947998,990.599609 1219.643555,990.599609 
	C1219.643555,938.393738 1219.643555,885.998535 1219.643555,832.850220 
	C1245.574463,832.850220 1271.467407,832.850220 1297.938232,832.850220 
	C1297.938232,839.649841 1297.938232,847.063293 1297.938232,855.207764 
	C1280.553467,855.207764 1262.684692,855.207764 1243.953491,855.207764 
	C1243.953491,869.048645 1243.953491,882.172058 1243.953491,895.687561 
	C1261.576172,895.687561 1278.941772,895.687561 1296.447510,895.687561 
	C1296.447510,903.225281 1296.447510,910.380066 1296.447510,917.953552 
	C1281.484009,917.953552 1266.311157,918.643250 1251.247681,917.659668 
	C1243.823486,917.174927 1243.690674,918.589478 1244.004761,925.108643 
z"/>
<path fill="#322832" opacity="1.000000" stroke="none" 
	d="
M1043.054565,936.795776 
	C1038.576782,944.722839 1034.249146,952.739197 1029.593384,960.560303 
	C1014.752441,985.491394 999.843933,1010.382690 984.858643,1035.227295 
	C969.341675,1060.953369 953.699097,1086.603882 938.123657,1112.294678 
	C933.654663,1119.666016 929.175049,1127.031982 924.797546,1134.457764 
	C920.612244,1141.557373 910.288452,1142.882324 905.011108,1136.238647 
	C900.606140,1130.693359 897.316345,1124.250977 893.635010,1118.144287 
	C880.966431,1097.129517 868.269348,1076.131348 855.721619,1055.044434 
	C842.136169,1032.213989 828.764709,1009.256042 815.184326,986.422546 
	C807.814392,974.030945 800.199036,961.785278 792.706970,949.466248 
	C791.686890,947.788940 790.740540,946.066711 789.390442,943.957886 
	C789.032104,943.382446 789.043457,943.214355 789.374023,942.895508 
	C791.051147,938.320190 796.567261,935.040405 793.399536,929.119629 
	C796.642029,933.903442 799.156067,938.884460 802.051941,943.632629 
	C809.262451,955.455505 816.680298,967.151672 823.950623,978.938354 
	C829.713257,988.280762 835.380676,997.681763 841.142700,1007.401001 
	C865.440491,1048.473145 889.685974,1089.200928 914.143311,1130.284546 
	C920.396912,1119.705811 926.122925,1109.762451 932.098145,1099.971191 
	C941.209778,1085.040405 950.616455,1070.288818 959.666260,1055.321167 
	C966.992554,1043.204224 973.931030,1030.853516 981.127258,1018.657104 
	C987.348022,1008.113953 993.698059,997.647095 999.975525,987.137329 
	C1007.356140,974.780823 1014.720093,962.414307 1022.416321,949.918091 
	C1027.195557,942.259033 1031.649902,934.733948 1036.070312,927.265808 
	C1038.454346,930.012756 1040.711792,932.613831 1042.990234,935.478149 
	C1043.025757,936.092834 1043.040161,936.444336 1043.054565,936.795776 
z"/>
<path fill="#EDD0FF" opacity="1.000000" stroke="none" 
	d="
M841.090393,1007.056763 
	C835.380676,997.681763 829.713257,988.280762 823.950623,978.938354 
	C816.680298,967.151672 809.262451,955.455505 802.051941,943.632629 
	C799.156067,938.884460 796.642029,933.903442 793.399536,929.119629 
	C796.567261,935.040405 791.051147,938.320190 789.211670,942.588440 
	C784.814575,935.930542 780.899048,929.428955 776.983521,922.927307 
	C776.956177,922.507507 776.928833,922.087708 776.830566,921.359924 
	C778.119446,918.125793 779.479065,915.199585 780.992004,911.943481 
	C781.764160,912.457947 782.681396,913.069031 783.598572,913.680054 
	C783.903992,913.439209 784.209351,913.198364 784.514771,912.957520 
	C772.034973,892.583496 759.555176,872.209412 747.576294,851.441528 
	C750.568787,851.035828 753.062561,851.089172 755.551331,851.000244 
	C763.645264,850.710876 771.737244,850.369385 779.975342,850.369751 
	C785.120178,859.007812 790.153137,867.304321 795.112366,875.644653 
	C805.364075,892.885742 815.606873,910.132324 825.795898,927.410522 
	C834.251526,941.749451 842.647949,956.123474 851.027466,970.507019 
	C858.089905,982.629883 865.090332,994.788818 871.642334,1006.942993 
	C861.141113,1006.988403 851.115723,1007.022583 841.090393,1007.056763 
z"/>
<path fill="#EDD0FF" opacity="1.000000" stroke="none" 
	d="
M1042.969238,935.214966 
	C1040.711792,932.613831 1038.454346,930.012756 1036.070312,927.265808 
	C1031.649902,934.733948 1027.195557,942.259033 1022.026184,949.751831 
	C1019.544861,949.485413 1017.780701,949.066528 1016.012390,949.048401 
	C1007.636719,948.962402 999.259888,948.985901 990.931152,948.603516 
	C1000.188965,932.440857 1009.340820,916.610535 1018.625305,900.858276 
	C1028.646484,883.856323 1038.791626,866.927368 1049.358398,849.982849 
	C1054.293701,850.005188 1058.758423,849.877380 1063.211548,850.049377 
	C1069.436401,850.289734 1075.652710,850.753601 1081.872681,851.121887 
	C1074.952637,862.541565 1068.013428,873.949646 1061.119263,885.384949 
	C1056.371216,893.260620 1051.685791,901.174072 1046.997192,909.028931 
	C1049.101807,911.672546 1051.122437,914.210693 1053.430664,916.910828 
	C1053.818848,917.463684 1053.919434,917.854614 1053.991943,918.911255 
	C1052.252319,922.530334 1050.718384,925.607239 1048.775635,928.399719 
	C1047.079346,930.837891 1044.922607,932.955750 1042.969238,935.214966 
z"/>
<path fill="#FCFCFC" opacity="1.000000" stroke="none" 
	d="
M776.647461,923.044067 
	C780.899048,929.428955 784.814575,935.930542 788.892456,942.739258 
	C789.043457,943.214355 789.032104,943.382446 789.092773,943.792725 
	C780.518921,961.454407 771.873169,978.873962 763.244812,996.258423 
	C743.320740,957.093140 723.714966,918.553589 704.013489,879.825745 
	C710.633118,879.825745 717.995972,879.586853 725.321289,880.004883 
	C727.011475,880.101379 729.186951,882.119812 730.091431,883.813293 
	C734.901672,892.819153 739.516357,901.936768 743.937256,911.141235 
	C750.081787,923.933960 755.994507,936.838074 762.448303,950.639343 
	C768.890381,942.195557 770.865112,931.728821 776.647461,923.044067 
z"/>
<path fill="#FCFCFC" opacity="1.000000" stroke="none" 
	d="
M1042.990356,935.478210 
	C1044.922607,932.955750 1047.079346,930.837891 1048.775635,928.399719 
	C1050.718384,925.607239 1052.252319,922.530334 1054.001953,919.214111 
	C1057.441895,923.206055 1060.843750,927.560791 1064.735107,932.542053 
	C1070.467163,920.593689 1075.954346,909.205627 1081.394043,897.795044 
	C1083.929321,892.476868 1086.337036,887.097839 1088.896240,881.791504 
	C1089.291138,880.972778 1090.180298,879.811890 1090.859009,879.799500 
	C1098.585083,879.658386 1106.314575,879.709839 1114.525757,879.709839 
	C1095.482666,917.193665 1076.869019,953.832336 1058.056152,990.863159 
	C1051.284180,990.863159 1043.814209,990.863159 1035.975708,990.863159 
	C1037.999878,986.498840 1039.870850,982.265503 1041.908447,978.114014 
	C1045.853027,970.077515 1050.342773,962.262512 1053.571533,953.953491 
	C1054.371582,951.894531 1051.445435,948.153870 1049.806396,945.443726 
	C1048.027344,942.502075 1045.751343,939.860901 1043.373291,936.942261 
	C1043.040161,936.444336 1043.025757,936.092834 1042.990356,935.478210 
z"/>
<path fill="#FCFCFC" opacity="1.000000" stroke="none" 
	d="
M597.234985,961.001709 
	C597.236145,971.559692 597.236145,981.617615 597.236145,991.367798 
	C589.281128,991.367798 582.046631,991.367798 574.699341,991.367798 
	C574.699341,953.686707 574.699341,916.545166 574.699341,879.200745 
	C582.552734,879.200745 589.794495,879.200745 597.233887,879.200745 
	C597.233887,906.342712 597.233887,933.422119 597.234985,961.001709 
z"/>
<path fill="#FCFCFC" opacity="1.000000" stroke="none" 
	d="
M1431.368286,921.999146 
	C1431.366577,945.251221 1431.366577,968.003113 1431.366577,990.878845 
	C1423.924927,990.878845 1416.796753,990.878845 1409.229004,990.878845 
	C1409.152344,989.489258 1409.016479,988.067688 1409.003784,986.645142 
	C1408.707031,953.564453 1408.422485,920.483765 1408.141357,887.403015 
	C1408.124878,885.458130 1408.140747,883.512573 1408.168457,881.567810 
	C1408.209717,878.683716 1409.994873,878.053894 1412.471924,878.166260 
	C1417.547119,878.396667 1422.668213,879.022339 1427.687988,878.570251 
	C1431.023926,878.269836 1431.675903,879.073669 1431.637207,882.071289 
	C1431.467529,895.212830 1431.445557,908.356323 1431.368286,921.999146 
z"/>
<path fill="#FCFCFC" opacity="1.000000" stroke="none" 
	d="
M578.610596,852.634888 
	C571.553345,844.847107 571.517029,838.684937 578.170654,832.120239 
	C582.241577,828.103760 590.839294,827.899963 595.223572,831.716003 
	C600.456665,836.270813 601.339355,844.319763 597.184326,849.596741 
	C592.550659,855.481323 586.430542,856.569763 578.610596,852.634888 
z"/>
<path fill="#FCFCFC" opacity="1.000000" stroke="none" 
	d="
M1408.822510,835.055481 
	C1413.421753,828.714172 1418.379883,827.268555 1425.461548,830.175903 
	C1430.306763,832.165039 1433.973145,840.309814 1432.492188,845.794067 
	C1431.122803,850.864929 1424.595947,855.262634 1418.821899,855.004822 
	C1411.116089,854.660828 1405.168213,846.302551 1407.381348,838.935059 
	C1407.755127,837.690979 1408.100220,836.438354 1408.822510,835.055481 
z"/>
<path fill="#EDD0FF" opacity="1.000000" stroke="none" 
	d="
M868.298828,853.021790 
	C883.400696,878.397583 898.502625,903.773376 913.906982,929.657288 
	C929.541931,903.415771 944.815674,877.780518 960.775757,852.336548 
	C969.231018,852.685364 977.004578,852.736267 984.765564,853.074402 
	C986.739380,853.160461 988.673462,854.158936 990.397400,854.996704 
	C964.919678,898.271118 939.670288,941.287048 914.048096,984.938110 
	C907.577393,974.141418 901.629944,964.179199 895.644897,954.239685 
	C883.961975,934.837524 872.207520,915.478210 860.579529,896.043152 
	C852.029114,881.752014 843.632690,867.368774 835.625671,853.018738 
	C846.822083,853.014465 857.560486,853.018127 868.298828,853.021790 
z"/>
<path fill="#D802FF" opacity="1.000000" stroke="none" 
	d="
M1020.537354,749.863159 
	C1024.322876,743.441589 1028.149414,737.043823 1031.882935,730.592224 
	C1036.111572,723.284973 1040.273926,715.939270 1044.428955,708.589844 
	C1046.036621,705.746277 1047.141479,702.487366 1049.256226,700.112976 
	C1050.441040,698.782715 1053.217529,698.441589 1055.286743,698.415039 
	C1059.888550,698.356140 1064.495850,698.962036 1069.101562,698.969971 
	C1101.735474,699.026245 1134.369263,698.999878 1167.003174,698.999878 
	C1168.826904,698.999878 1170.650635,698.999878 1173.595581,698.999878 
	C1161.371094,719.053406 1149.546997,738.450317 1136.997314,757.944946 
	C1133.341309,757.696777 1130.415039,757.102234 1127.479492,757.052490 
	C1119.377197,756.915283 1111.270996,757.005859 1103.204834,756.659485 
	C1110.096558,744.710938 1116.949707,733.109253 1124.102661,721.000122 
	C1108.939819,721.000122 1094.765381,721.716370 1080.707642,720.744202 
	C1071.585938,720.113342 1066.791870,723.333618 1063.098755,731.247620 
	C1059.841797,738.226746 1055.116943,744.520813 1050.622437,751.051392 
	C1048.098389,750.677185 1045.997192,750.146118 1043.885498,750.100952 
	C1036.104736,749.934570 1028.320312,749.929077 1020.537354,749.863159 
z"/>
<path fill="#D802FF" opacity="1.000000" stroke="none" 
	d="
M686.966675,750.279907 
	C684.267700,746.224854 681.421387,742.259155 678.897156,738.098206 
	C671.052856,725.167664 663.330627,712.163025 655.206238,698.594604 
	C657.742676,698.739136 660.030151,698.981689 662.317749,698.983093 
	C699.635071,699.005676 736.952637,698.949341 774.269104,699.127075 
	C776.331543,699.136902 779.290955,700.481689 780.298523,702.138306 
	C788.016418,714.827759 795.372681,727.737854 802.793396,740.606934 
	C804.264587,743.158447 805.529541,745.828796 806.467590,748.767578 
	C795.088074,749.266907 784.130615,749.442993 772.939209,749.373535 
	C769.386780,743.547485 765.476440,738.226929 762.885437,732.326965 
	C758.766602,722.947876 752.451050,719.868286 742.222351,720.746094 
	C729.771179,721.814697 717.158508,721.000122 704.358521,721.000122 
	C709.840210,730.694397 715.027771,739.868652 719.733276,749.054443 
	C710.371582,749.066772 701.490906,748.999023 692.613037,749.123352 
	C690.725891,749.149841 688.848511,749.876099 686.966675,750.279907 
z"/>
<path fill="#E077FF" opacity="1.000000" stroke="none" 
	d="
M779.830017,850.047974 
	C771.737244,850.369385 763.645264,850.710876 755.551331,851.000244 
	C753.062561,851.089172 750.568787,851.035828 747.620728,851.089233 
	C739.779968,839.119690 732.351990,827.135010 725.027161,815.087708 
	C720.332458,807.366272 715.789734,799.552307 711.360291,791.139038 
	C713.675293,790.341125 715.806824,790.092224 717.942993,790.042908 
	C726.575623,789.843628 735.209656,789.705750 744.097351,789.743530 
	C748.973572,797.537231 753.690796,805.076721 758.195923,812.740906 
	C765.480591,825.133484 772.625916,837.608032 779.830017,850.047974 
z"/>
<path fill="#E077FF" opacity="1.000000" stroke="none" 
	d="
M1082.077148,850.823486 
	C1075.652710,850.753601 1069.436401,850.289734 1063.211548,850.049377 
	C1058.758423,849.877380 1054.293701,850.005188 1049.404053,849.617432 
	C1059.371460,831.496582 1069.768921,813.757446 1080.624756,796.014343 
	C1092.093750,796.353943 1103.104492,796.697449 1114.115234,797.041016 
	C1105.899170,810.833862 1097.681519,824.625793 1089.467651,838.420044 
	C1087.066895,842.451782 1084.676636,846.489929 1082.077148,850.823486 
z"/>
<path fill="#DB46FF" opacity="1.000000" stroke="none" 
	d="
M773.173157,749.619080 
	C784.130615,749.442993 795.088074,749.266907 806.514709,749.125244 
	C809.982422,753.785706 813.135681,758.319946 815.946106,763.057617 
	C821.222412,771.951904 826.323181,780.950806 831.449585,789.933228 
	C833.390320,793.333801 835.200195,796.809082 836.733398,800.754944 
	C834.624084,801.502075 832.852905,801.937195 831.077759,801.954163 
	C822.337646,802.037842 813.596558,802.010620 804.542358,801.882568 
	C793.876953,784.368164 783.525085,766.993591 773.173157,749.619080 
z"/>
<path fill="#E077FF" opacity="1.000000" stroke="none" 
	d="
M804.855835,802.022583 
	C813.596558,802.010620 822.337646,802.037842 831.077759,801.954163 
	C832.852905,801.937195 834.624084,801.502075 836.806396,801.115234 
	C839.785400,804.719482 842.580811,808.334961 844.883667,812.240967 
	C852.719177,825.530701 860.380981,838.922913 868.203979,852.648926 
	C857.560486,853.018127 846.822083,853.014465 835.467163,852.699646 
	C829.126648,843.012939 823.332825,833.679199 817.701416,824.248535 
	C813.314819,816.902344 809.130188,809.435669 804.855835,802.022583 
z"/>
<path fill="#E077FF" opacity="1.000000" stroke="none" 
	d="
M990.625854,854.738159 
	C988.673462,854.158936 986.739380,853.160461 984.765564,853.074402 
	C977.004578,852.736267 969.231018,852.685364 961.122925,852.258789 
	C963.179626,847.599365 965.468262,843.146240 967.991638,838.830383 
	C975.307556,826.317871 982.717590,813.860474 990.791870,801.146545 
	C999.641052,800.937866 1007.790100,800.902710 1015.936157,801.039978 
	C1017.649841,801.068848 1019.352844,801.730652 1021.022095,802.460693 
	C1010.864136,820.126465 1000.744995,837.432312 990.625854,854.738159 
z"/>
<path fill="#DB46FF" opacity="1.000000" stroke="none" 
	d="
M1021.060791,802.100830 
	C1019.352844,801.730652 1017.649841,801.068848 1015.936157,801.039978 
	C1007.790100,800.902710 999.641052,800.937866 990.987549,800.867065 
	C993.997375,794.900146 997.578552,789.015686 1001.011841,783.046143 
	C1005.508240,775.228394 1009.845337,767.318909 1014.339050,759.499512 
	C1016.130859,756.381592 1018.157898,753.398865 1020.307617,750.108887 
	C1028.320312,749.929077 1036.104736,749.934570 1043.885498,750.100952 
	C1045.997192,750.146118 1048.098389,750.677185 1050.591919,751.405762 
	C1044.652222,762.719299 1038.384766,773.647583 1031.974365,784.491394 
	C1028.460938,790.434753 1024.706543,796.235657 1021.060791,802.100830 
z"/>
<path fill="#DB46FF" opacity="1.000000" stroke="none" 
	d="
M743.843201,789.545227 
	C735.209656,789.705750 726.575623,789.843628 717.942993,790.042908 
	C715.806824,790.092224 713.675293,790.341125 711.257690,790.810852 
	C705.317200,781.945435 699.605408,772.800964 694.029480,763.574280 
	C691.542175,759.458374 689.328369,755.177246 686.978516,750.625488 
	C688.848511,749.876099 690.725891,749.149841 692.613037,749.123352 
	C701.490906,748.999023 710.371582,749.066772 720.019165,749.220703 
	C723.279297,753.511292 725.857666,757.598145 728.245972,761.793213 
	C733.496033,771.014832 738.650024,780.291199 743.843201,789.545227 
z"/>
<path fill="#DB46FF" opacity="1.000000" stroke="none" 
	d="
M1114.429199,796.895264 
	C1103.104492,796.697449 1092.093750,796.353943 1080.652954,795.667175 
	C1087.870728,782.551453 1095.518555,769.778931 1103.166382,757.006348 
	C1111.270996,757.005859 1119.377197,756.915283 1127.479492,757.052490 
	C1130.415039,757.102234 1133.341309,757.696777 1136.693115,758.118713 
	C1135.557007,761.280701 1134.170044,764.467529 1132.411621,767.434265 
	C1126.594238,777.248779 1120.643066,786.983948 1114.429199,796.895264 
z"/>
<path fill="#000000" opacity="1.000000" stroke="none" 
	d="
M436.439575,901.664978 
	C439.797943,922.125854 433.452362,947.433594 414.527802,959.567383 
	C404.568329,965.953064 393.200500,968.695007 381.285980,968.641052 
	C376.637146,968.619995 371.989166,968.393433 367.340454,968.379578 
	C363.799957,968.369019 362.060150,967.271667 362.123077,963.188171 
	C362.437408,942.777405 362.525299,922.362305 362.560913,901.948425 
	C362.577698,892.330566 362.182068,882.711853 362.201538,873.094055 
	C362.211548,868.140137 362.477234,863.152222 363.176331,858.258118 
	C363.353180,857.019897 365.585510,855.214539 366.954712,855.138672 
	C383.210327,854.237549 399.221771,855.041443 413.580383,864.065979 
	C422.192352,869.478760 428.951630,876.478943 432.012604,886.492004 
	C433.516815,891.412537 435.053253,896.323303 436.439575,901.664978 
z"/>
<path fill="#FCFCFC" opacity="1.000000" stroke="none" 
	d="
M990.883545,948.970337 
	C999.259888,948.985901 1007.636719,948.962402 1016.012390,949.048401 
	C1017.780701,949.066528 1019.544861,949.485413 1021.701111,949.885864 
	C1014.720093,962.414307 1007.356140,974.780823 999.975525,987.137329 
	C993.698059,997.647095 987.348022,1008.113953 981.127258,1018.657104 
	C973.931030,1030.853516 966.992554,1043.204224 959.666260,1055.321167 
	C950.616455,1070.288818 941.209778,1085.040405 932.098145,1099.971191 
	C926.122925,1109.762451 920.396912,1119.705811 914.143311,1130.284546 
	C889.685974,1089.200928 865.440491,1048.473145 841.142700,1007.401062 
	C851.115723,1007.022583 861.141113,1006.988403 871.954102,1007.107666 
	C886.528076,1030.780029 900.314270,1054.299072 914.434143,1078.387329 
	C923.885498,1062.069580 932.988892,1046.186768 942.253479,1030.398315 
	C954.434082,1009.640503 966.713196,988.940369 979.011108,968.251709 
	C982.867310,961.764465 986.920471,955.394165 990.883545,948.970337 
z"/>
<path fill="#322832" opacity="1.000000" stroke="none" 
	d="
M990.931152,948.603577 
	C986.920471,955.394165 982.867310,961.764465 979.011108,968.251709 
	C966.713196,988.940369 954.434082,1009.640503 942.253479,1030.398315 
	C932.988892,1046.186768 923.885498,1062.069580 914.434143,1078.387329 
	C900.314270,1054.299072 886.528076,1030.780029 872.430054,1007.096436 
	C865.090332,994.788818 858.089905,982.629883 851.027466,970.507019 
	C842.647949,956.123474 834.251526,941.749451 825.795898,927.410522 
	C815.606873,910.132324 805.364075,892.885742 795.112366,875.644653 
	C790.153137,867.304321 785.120178,859.007812 779.975342,850.369751 
	C772.625916,837.608032 765.480591,825.133484 758.195923,812.740906 
	C753.690796,805.076721 748.973572,797.537231 744.097351,789.743530 
	C738.650024,780.291199 733.496033,771.014832 728.245972,761.793213 
	C725.857666,757.598145 723.279297,753.511292 720.501221,749.209106 
	C715.027771,739.868652 709.840210,730.694397 704.358521,721.000122 
	C717.158508,721.000122 729.771179,721.814697 742.222351,720.746094 
	C752.451050,719.868286 758.766602,722.947876 762.885437,732.326965 
	C765.476440,738.226929 769.386780,743.547485 772.939209,749.373535 
	C783.525085,766.993591 793.876953,784.368164 804.542358,801.882629 
	C809.130188,809.435669 813.314819,816.902344 817.701416,824.248535 
	C823.332825,833.679199 829.126648,843.012939 835.009033,852.707520 
	C843.632690,867.368774 852.029114,881.752014 860.579529,896.043152 
	C872.207520,915.478210 883.961975,934.837524 895.644897,954.239685 
	C901.629944,964.179199 907.577393,974.141418 914.048096,984.938110 
	C939.670288,941.287048 964.919678,898.271118 990.397461,854.996704 
	C1000.744995,837.432312 1010.864136,820.126465 1021.022034,802.460693 
	C1024.706543,796.235657 1028.460938,790.434753 1031.974365,784.491394 
	C1038.384766,773.647583 1044.652222,762.719299 1051.009888,751.471863 
	C1055.116943,744.520813 1059.841797,738.226746 1063.098755,731.247620 
	C1066.791870,723.333618 1071.585938,720.113342 1080.707642,720.744202 
	C1094.765381,721.716370 1108.939819,721.000122 1124.102661,721.000122 
	C1116.949707,733.109253 1110.096558,744.710938 1103.204834,756.659485 
	C1095.518555,769.778931 1087.870728,782.551453 1080.194702,795.671143 
	C1069.768921,813.757446 1059.371460,831.496582 1048.928223,849.601074 
	C1038.791626,866.927368 1028.646484,883.856323 1018.625305,900.858276 
	C1009.340820,916.610535 1000.188965,932.440857 990.931152,948.603577 
M1038.974121,795.484802 
	C1026.897705,816.116394 1014.860840,836.771240 1002.734741,857.373535 
	C987.577454,883.125732 972.353088,908.838440 957.145386,934.560913 
	C946.500671,952.565552 935.568481,970.407532 925.297485,988.622559 
	C920.503113,997.125061 907.356812,997.170410 902.737732,988.661621 
	C897.041016,978.167542 890.504517,968.130005 884.349854,957.883789 
	C860.671631,918.464172 836.995239,879.043518 813.328918,839.616760 
	C792.311157,804.602417 771.319641,769.572327 750.242310,734.593933 
	C749.570190,733.478638 748.102051,732.151672 746.969055,732.117615 
	C739.589294,731.895264 732.199707,732.003296 724.108643,732.003296 
	C787.687805,840.029175 850.808533,947.276062 914.398621,1055.320435 
	C977.777344,947.335510 1040.770630,840.007263 1104.174438,731.979553 
	C1095.137817,731.979553 1087.307983,731.791809 1079.500488,732.125122 
	C1077.773804,732.198853 1075.455933,733.715515 1074.543335,735.244202 
	C1062.714844,755.059082 1051.091187,774.996277 1038.974121,795.484802 
z"/>
<path fill="#000000" opacity="1.000000" stroke="none" 
	d="
M1039.195068,795.193726 
	C1051.091187,774.996277 1062.714844,755.059082 1074.543335,735.244202 
	C1075.455933,733.715515 1077.773804,732.198853 1079.500488,732.125122 
	C1087.307983,731.791809 1095.137817,731.979553 1104.174438,731.979553 
	C1040.770630,840.007263 977.777344,947.335510 914.398621,1055.320435 
	C850.808533,947.276062 787.687805,840.029175 724.108643,732.003296 
	C732.199707,732.003296 739.589294,731.895264 746.969055,732.117615 
	C748.102051,732.151672 749.570190,733.478638 750.242310,734.593933 
	C771.319641,769.572327 792.311157,804.602417 813.328918,839.616760 
	C836.995239,879.043518 860.671631,918.464172 884.349854,957.883789 
	C890.504517,968.130005 897.041016,978.167542 902.737732,988.661621 
	C907.356812,997.170410 920.503113,997.125061 925.297485,988.622559 
	C935.568481,970.407532 946.500671,952.565552 957.145386,934.560913 
	C972.353088,908.838440 987.577454,883.125732 1002.734741,857.373535 
	C1014.860840,836.771240 1026.897705,816.116394 1039.195068,795.193726 
z"/>
</svg>
